<svg width="32" height="32" viewBox="0 0 32 32" fill="none" xmlns="http://www.w3.org/2000/svg">
  <rect width="32" height="32" rx="6" fill="#FF6B44"/>
  <path d="M10.336 23V9.4H16.16C18.08 9.4 19.504 9.872 20.432 10.816C21.376 11.744 21.848 13.104 21.848 14.896C21.848 16.688 21.376 18.048 20.432 18.976C19.504 19.904 18.08 20.368 16.16 20.368H13.592V23H10.336ZM13.592 17.624H16.04C16.968 17.624 17.656 17.424 18.104 17.024C18.552 16.608 18.776 15.904 18.776 14.912C18.776 13.904 18.552 13.2 18.104 12.8C17.656 12.384 16.968 12.176 16.04 12.176H13.592V17.624Z" fill="white"/>
</svg>
